<?xml version="1.0" encoding="UTF-8" standalone="no"?>
<svg
   xmlns:dc="http://purl.org/dc/elements/1.1/"
   xmlns:cc="http://creativecommons.org/ns#"
   xmlns:rdf="http://www.w3.org/1999/02/22-rdf-syntax-ns#"
   xmlns:svg="http://www.w3.org/2000/svg"
   xmlns="http://www.w3.org/2000/svg"
   viewBox="0 0 133.33333 133.33333"
   height="133.33333"
   width="133.33333"
   xml:space="preserve"
   id="svg2"
   version="1.1"><metadata
     id="metadata8"><rdf:RDF><cc:Work
         rdf:about=""><dc:format>image/svg+xml</dc:format><dc:type
           rdf:resource="http://purl.org/dc/dcmitype/StillImage" /></cc:Work></rdf:RDF></metadata><defs
     id="defs6"><clipPath
       id="clipPath18"
       clipPathUnits="userSpaceOnUse"><path
         id="path16"
         d="M 0,100 H 100 V 0 H 0 Z" /></clipPath></defs><g
     transform="matrix(1.3333333,0,0,-1.3333333,0,133.33333)"
     id="g10"><g
       id="g12"><g
         clip-path="url(#clipPath18)"
         id="g14"><g
           transform="translate(74.8894,38.896)"
           id="g20"><path
             id="path22"
             style="fill:#ffffff;fill-opacity:1;fill-rule:nonzero;stroke:none"
             d="m 0,0 c 0,0 0.164,-8.116 -5.945,-14.225 -6.109,-6.109 -14.225,-5.945 -14.225,-5.945 0,0 -0.164,8.116 5.945,14.225 C -8.116,0.164 0,0 0,0" /></g><g
           transform="translate(43.1881,27.6134)"
           id="g24"><path
             id="path26"
             style="fill:#ffffff;fill-opacity:1;fill-rule:nonzero;stroke:none"
             d="m 0,0 c 0,0 2.454,5.055 0.383,10.664 -2.071,5.61 -7.221,7.857 -7.221,7.857 0,0 -2.454,-5.054 -0.383,-10.664 C -5.15,2.248 0,0 0,0" /></g><g
           transform="translate(49.3336,61.8739)"
           id="g28"><path
             id="path30"
             style="fill:none;stroke:#ffffff;stroke-width:3.39599991;stroke-linecap:round;stroke-linejoin:round;stroke-miterlimit:10;stroke-dasharray:none;stroke-opacity:1"
             d="M 0,0 0.563,-47.971" /></g><g
           transform="translate(58.7287,76.7022)"
           id="g32"><path
             id="path34"
             style="fill:#ffffff;fill-opacity:1;fill-rule:nonzero;stroke:none"
             d="m 0,0 c 0,-5.189 -9.395,-14.828 -9.395,-14.828 0,0 -9.395,9.639 -9.395,14.828 0,5.189 4.206,9.395 9.395,9.395 C -4.206,9.395 0,5.189 0,0" /></g><g
           transform="translate(58.7287,76.7022)"
           id="g36"><path
             id="path38"
             style="fill:none;stroke:#372e8a;stroke-width:3.39599991;stroke-linecap:butt;stroke-linejoin:miter;stroke-miterlimit:10;stroke-dasharray:none;stroke-opacity:1"
             d="m 0,0 c 0,-5.189 -9.395,-14.828 -9.395,-14.828 0,0 -9.395,9.639 -9.395,14.828 0,5.189 4.206,9.395 9.395,9.395 C -4.206,9.395 0,5.189 0,0 Z" /></g><g
           transform="translate(34.5053,71.2689)"
           id="g40"><path
             id="path42"
             style="fill:#ffffff;fill-opacity:1;fill-rule:nonzero;stroke:none"
             d="m 0,0 c 5.189,0 14.828,-9.395 14.828,-9.395 0,0 -9.639,-9.395 -14.828,-9.395 -5.189,0 -9.395,4.206 -9.395,9.395 C -9.395,-4.206 -5.189,0 0,0" /></g><g
           transform="translate(34.5053,71.2689)"
           id="g44"><path
             id="path46"
             style="fill:none;stroke:#372e8a;stroke-width:3.39599991;stroke-linecap:butt;stroke-linejoin:miter;stroke-miterlimit:10;stroke-dasharray:none;stroke-opacity:1"
             d="m 0,0 c 5.189,0 14.828,-9.395 14.828,-9.395 0,0 -9.639,-9.395 -14.828,-9.395 -5.189,0 -9.395,4.206 -9.395,9.395 C -9.395,-4.206 -5.189,0 0,0 Z" /></g><g
           transform="translate(64.1619,71.2689)"
           id="g48"><path
             id="path50"
             style="fill:#ffffff;fill-opacity:1;fill-rule:nonzero;stroke:none"
             d="m 0,0 c -5.189,0 -14.828,-9.395 -14.828,-9.395 0,0 9.639,-9.395 14.828,-9.395 5.189,0 9.395,4.206 9.395,9.395 C 9.395,-4.206 5.189,0 0,0" /></g><g
           transform="translate(64.1619,71.2689)"
           id="g52"><path
             id="path54"
             style="fill:none;stroke:#372e8a;stroke-width:3.39599991;stroke-linecap:butt;stroke-linejoin:miter;stroke-miterlimit:10;stroke-dasharray:none;stroke-opacity:1"
             d="m 0,0 c -5.189,0 -14.828,-9.395 -14.828,-9.395 0,0 9.639,-9.395 14.828,-9.395 5.189,0 9.395,4.206 9.395,9.395 C 9.395,-4.206 5.189,0 0,0 Z" /></g></g></g></g></svg>