<?xml version="1.0" encoding="UTF-8" standalone="no"?>
<svg
   xmlns:dc="http://purl.org/dc/elements/1.1/"
   xmlns:cc="http://creativecommons.org/ns#"
   xmlns:rdf="http://www.w3.org/1999/02/22-rdf-syntax-ns#"
   xmlns:svg="http://www.w3.org/2000/svg"
   xmlns="http://www.w3.org/2000/svg"
   viewBox="0 0 133.33333 133.33333"
   height="133.33333"
   width="133.33333"
   xml:space="preserve"
   id="svg2"
   version="1.1"><metadata
     id="metadata8"><rdf:RDF><cc:Work
         rdf:about=""><dc:format>image/svg+xml</dc:format><dc:type
           rdf:resource="http://purl.org/dc/dcmitype/StillImage" /></cc:Work></rdf:RDF></metadata><defs
     id="defs6"><clipPath
       id="clipPath20"
       clipPathUnits="userSpaceOnUse"><path
         id="path18"
         d="M 0,100 H 100 V 0 H 0 Z" /></clipPath></defs><g
     transform="matrix(1.3333333,0,0,-1.3333333,0,133.33333)"
     id="g10"><path
       id="path12"
       style="fill:#d8ccc8;fill-opacity:1;fill-rule:nonzero;stroke:none"
       d="M 0,0 H 100 V 100 H 0 Z" /><g
       id="g14"><g
         clip-path="url(#clipPath20)"
         id="g16"><g
           transform="translate(16.9541,38.0057)"
           id="g22"><path
             id="path24"
             style="fill:none;stroke:#363088;stroke-width:2.42600012;stroke-linecap:round;stroke-linejoin:miter;stroke-miterlimit:10;stroke-dasharray:none;stroke-opacity:1"
             d="m 0,0 c -1.456,-1.166 -1.69,-3.291 -0.525,-4.746 1.458,-1.82 4.114,-2.113 5.933,-0.656 2.275,1.821 2.642,5.142 0.82,7.416 -2.277,2.843 -6.427,3.302 -9.27,1.025 -3.554,-2.847 -4.127,-8.035 -1.281,-11.588 3.558,-4.442 10.043,-5.159 14.485,-1.601 5.552,4.447 6.757,12.816 2.001,18.106 C 2.946,18.209 -9.752,8.052 -9.752,8.052" /></g><g
           transform="translate(83.0459,38.0057)"
           id="g26"><path
             id="path28"
             style="fill:none;stroke:#363088;stroke-width:2.42600012;stroke-linecap:round;stroke-linejoin:miter;stroke-miterlimit:10;stroke-dasharray:none;stroke-opacity:1"
             d="m 0,0 c 1.456,-1.166 1.69,-3.291 0.525,-4.746 -1.458,-1.82 -4.114,-2.113 -5.933,-0.656 -2.275,1.821 -2.642,5.142 -0.82,7.416 2.277,2.843 6.427,3.302 9.27,1.025 3.554,-2.847 4.127,-8.035 1.281,-11.588 -3.558,-4.442 -10.043,-5.159 -14.485,-1.601 -5.552,4.447 -6.757,12.816 -2.001,18.106 9.217,10.253 21.915,0.096 21.915,0.096" /></g><g
           transform="translate(74.2725,71.8516)"
           id="g30"><path
             id="path32"
             style="fill:none;stroke:#363088;stroke-width:2.42600012;stroke-linecap:round;stroke-linejoin:round;stroke-miterlimit:10;stroke-dasharray:none;stroke-opacity:1"
             d="M 0,0 C -3.695,3.695 -9.685,3.695 -13.379,0 L -24.192,-10.812 -35.004,0 c -3.694,3.695 -9.684,3.695 -13.379,0 -3.695,-3.695 -3.695,-9.685 0,-13.379 3.388,-3.388 21.441,-21.441 21.441,-21.441 l 2.747,-2.752 2.754,2.752 c 0,0 18.053,18.053 21.441,21.441 C 3.695,-9.685 3.695,-3.695 0,0 Z" /></g><g
           transform="translate(53.3356,37.5355)"
           id="g34"><path
             id="path36"
             style="fill:none;stroke:#363088;stroke-width:2.42600012;stroke-linecap:round;stroke-linejoin:round;stroke-miterlimit:10;stroke-dasharray:none;stroke-opacity:1"
             d="m 0,0 c -2.88,-2.88 -2.88,-7.55 0,-10.43 2.304,-2.304 6.04,-2.304 8.344,0 1.843,1.843 1.843,4.832 0,6.675 -1.475,1.475 -3.866,1.475 -5.34,0 -1.18,-1.179 -1.18,-3.092 0,-4.272" /></g><g
           transform="translate(46.8264,37.5355)"
           id="g38"><path
             id="path40"
             style="fill:none;stroke:#363088;stroke-width:2.42600012;stroke-linecap:round;stroke-linejoin:round;stroke-miterlimit:10;stroke-dasharray:none;stroke-opacity:1"
             d="m 0,0 c 2.88,-2.88 2.88,-7.55 0,-10.43 -2.304,-2.304 -6.04,-2.304 -8.344,0 -1.843,1.843 -1.843,4.832 0,6.675 1.475,1.475 3.866,1.475 5.34,0 1.18,-1.179 1.18,-3.092 0,-4.272" /></g></g></g></g></svg>