<?xml version="1.0" encoding="UTF-8" standalone="no"?>
<svg
   xmlns:dc="http://purl.org/dc/elements/1.1/"
   xmlns:cc="http://creativecommons.org/ns#"
   xmlns:rdf="http://www.w3.org/1999/02/22-rdf-syntax-ns#"
   xmlns:svg="http://www.w3.org/2000/svg"
   xmlns="http://www.w3.org/2000/svg"
   viewBox="0 0 133.33333 133.33333"
   height="133.33333"
   width="133.33333"
   xml:space="preserve"
   id="svg2"
   version="1.1"><metadata
     id="metadata8"><rdf:RDF><cc:Work
         rdf:about=""><dc:format>image/svg+xml</dc:format><dc:type
           rdf:resource="http://purl.org/dc/dcmitype/StillImage" /></cc:Work></rdf:RDF></metadata><defs
     id="defs6"><clipPath
       id="clipPath22"
       clipPathUnits="userSpaceOnUse"><path
         id="path20"
         d="M 0,100 H 100 V 0 H 0 Z" /></clipPath></defs><g
     transform="matrix(1.3333333,0,0,-1.3333333,0,133.33333)"
     id="g10"><g
       transform="translate(64.434,55.8311)"
       id="g12"><path
         id="path14"
         style="fill:none;stroke:#ffffff;stroke-width:0.722;stroke-linecap:round;stroke-linejoin:round;stroke-miterlimit:10;stroke-dasharray:none;stroke-opacity:1"
         d="m 0,0 3.788,3.959 -2.544,2.042 2.905,3.61 -3.307,3.863 2.104,3.548 -4.45,0.361 -0.661,4.811 -3.91,-4.008 -0.601,-0.923 -1.082,1.284 -4.331,4.008 0.181,-5.352 h -5.353 l 2.961,-3.669 -4.705,-2.887 4.344,-3.368 -4.644,-3.247 6.014,-5.231" /></g><g
       id="g16"><g
         clip-path="url(#clipPath22)"
         id="g18"><g
           transform="translate(51.2988,49.5688)"
           id="g24"><path
             id="path26"
             style="fill:#ffffff;fill-opacity:1;fill-rule:nonzero;stroke:none"
             d="m 0,0 c 0.149,3.267 0.637,14.132 0.717,18.146 0.064,3.23 2.587,5.761 5.742,5.761 3.156,0 5.679,-2.53 5.742,-5.76 0.08,-4.024 0.568,-14.913 0.717,-18.193 z" /></g><g
           transform="translate(57.7581,74.3779)"
           id="g28"><path
             id="path30"
             style="fill:#372e8a;fill-opacity:1;fill-rule:nonzero;stroke:none"
             d="m 0,0 c -3.67,0 -6.571,-2.976 -6.644,-6.644 -0.095,-4.769 -0.759,-19.064 -0.759,-19.064 l 14.806,-0.053 c 0,0 -0.664,14.335 -0.759,19.117 C 6.572,-2.975 3.67,0 0,0 m 0,-1.804 c 2.66,0 4.786,-2.142 4.841,-4.876 0.074,-3.76 0.49,-13.202 0.673,-17.27 l -11.029,0.04 c 0.184,4.052 0.6,13.478 0.674,17.23 0.055,2.734 2.181,4.876 4.841,4.876" /></g><g
           transform="translate(30.7877,61.4266)"
           id="g32"><path
             id="path34"
             style="fill:#ffffff;fill-opacity:1;fill-rule:nonzero;stroke:none"
             d="m 0,0 c 0,0 28.29,-18.462 43.93,1.323 9.284,11.745 14.794,-10.585 14.794,-10.585 0,0 -13.464,5.627 -20.928,-9.576 -4.451,-9.428 -24.335,-5.382 -30.07,0.722 C 2.389,-12.437 0,0 0,0" /></g><g
           transform="translate(30.7877,61.4266)"
           id="g36"><path
             id="path38"
             style="fill:none;stroke:#372e8a;stroke-width:1.80400002;stroke-linecap:butt;stroke-linejoin:miter;stroke-miterlimit:10;stroke-dasharray:none;stroke-opacity:1"
             d="m 0,0 c 0,0 28.29,-18.462 43.93,1.323 9.284,11.745 14.794,-10.585 14.794,-10.585 0,0 -13.464,5.627 -20.928,-9.576 -4.451,-9.428 -24.335,-5.382 -30.07,0.722 C 2.389,-12.437 0,0 0,0 Z" /></g><g
           transform="translate(78.0854,60.1035)"
           id="g40"><path
             id="path42"
             style="fill:#372e8a;fill-opacity:1;fill-rule:nonzero;stroke:none"
             d="m 0,0 c 0,-0.93 0.754,-1.684 1.684,-1.684 0.93,0 1.684,0.754 1.684,1.684 0,0.93 -0.754,1.684 -1.684,1.684 C 0.754,1.684 0,0.93 0,0" /></g><g
           transform="translate(31.5972,60.4042)"
           id="g44"><path
             id="path46"
             style="fill:#372e8a;fill-opacity:1;fill-rule:nonzero;stroke:none"
             d="M 0,0 C 0,0 -0.661,25.622 -20.929,10.224 -15.321,10.464 -7.337,11.066 0,0" /></g><g
           transform="translate(10.488,59.7905)"
           id="g48"><path
             id="path50"
             style="fill:#372e8a;fill-opacity:1;fill-rule:nonzero;stroke:none"
             d="M 0,0 C 5.517,5.289 11.462,13.774 22.363,0.587 22.363,0.587 14.869,3.707 0,0" /></g><g
           transform="translate(15.5495,50.0226)"
           id="g52"><path
             id="path54"
             style="fill:#372e8a;fill-opacity:1;fill-rule:nonzero;stroke:none"
             d="M 0,0 C 2.024,5.925 0.386,13.2 17.226,10.972 17.226,10.972 7.374,7.461 0,0" /></g><g
           transform="translate(48.6168,37.8249)"
           id="g56"><path
             id="path58"
             style="fill:#ffffff;fill-opacity:1;fill-rule:nonzero;stroke:#372e8a;stroke-width:1.80400002;stroke-linecap:round;stroke-linejoin:miter;stroke-miterlimit:10;stroke-dasharray:none;stroke-opacity:1"
             d="M 0,0 -14.434,-16.211" /></g><g
           transform="translate(61.3444,37.4632)"
           id="g60"><path
             id="path62"
             style="fill:#ffffff;fill-opacity:1;fill-rule:nonzero;stroke:#372e8a;stroke-width:1.80400002;stroke-linecap:round;stroke-linejoin:miter;stroke-miterlimit:10;stroke-dasharray:none;stroke-opacity:1"
             d="M 0,0 8.201,-15.007" /></g><g
           transform="translate(38.0322,31.4769)"
           id="g64"><path
             id="path66"
             style="fill:#ffffff;fill-opacity:1;fill-rule:nonzero;stroke:#372e8a;stroke-width:1.80400002;stroke-linecap:round;stroke-linejoin:miter;stroke-miterlimit:10;stroke-dasharray:none;stroke-opacity:1"
             d="M 0,0 1.684,-9.863" /></g><g
           transform="translate(43.565,27.7482)"
           id="g68"><path
             id="path70"
             style="fill:#ffffff;fill-opacity:1;fill-rule:nonzero;stroke:#372e8a;stroke-width:1.80400002;stroke-linecap:round;stroke-linejoin:miter;stroke-miterlimit:10;stroke-dasharray:none;stroke-opacity:1"
             d="M 0,0 -10.789,-1.203" /></g><g
           transform="translate(63.0504,29.1916)"
           id="g72"><path
             id="path74"
             style="fill:#ffffff;fill-opacity:1;fill-rule:nonzero;stroke:#372e8a;stroke-width:1.80400002;stroke-linecap:round;stroke-linejoin:miter;stroke-miterlimit:10;stroke-dasharray:none;stroke-opacity:1"
             d="M 0,0 8.179,-3.248" /></g><g
           transform="translate(69.5455,32.1986)"
           id="g76"><path
             id="path78"
             style="fill:#ffffff;fill-opacity:1;fill-rule:nonzero;stroke:#372e8a;stroke-width:1.80400002;stroke-linecap:round;stroke-linejoin:miter;stroke-miterlimit:10;stroke-dasharray:none;stroke-opacity:1"
             d="M 0,0 -5.292,-9.262" /></g></g></g></g></svg>