<?xml version="1.0" encoding="UTF-8" standalone="no"?>
<svg
   xmlns:dc="http://purl.org/dc/elements/1.1/"
   xmlns:cc="http://creativecommons.org/ns#"
   xmlns:rdf="http://www.w3.org/1999/02/22-rdf-syntax-ns#"
   xmlns:svg="http://www.w3.org/2000/svg"
   xmlns="http://www.w3.org/2000/svg"
   viewBox="0 0 133.33333 133.33333"
   height="133.33333"
   width="133.33333"
   xml:space="preserve"
   id="svg2"
   version="1.1"><metadata
     id="metadata8"><rdf:RDF><cc:Work
         rdf:about=""><dc:format>image/svg+xml</dc:format><dc:type
           rdf:resource="http://purl.org/dc/dcmitype/StillImage" /></cc:Work></rdf:RDF></metadata><defs
     id="defs6"><clipPath
       id="clipPath18"
       clipPathUnits="userSpaceOnUse"><path
         id="path16"
         d="M 0,100 H 100 V 0 H 0 Z" /></clipPath></defs><g
     transform="matrix(1.3333333,0,0,-1.3333333,0,133.33333)"
     id="g10"><g
       id="g12"><g
         clip-path="url(#clipPath18)"
         id="g14"><g
           transform="translate(65.4141,50.2144)"
           id="g20"><path
             id="path22"
             style="fill:#372e8a;fill-opacity:1;fill-rule:nonzero;stroke:none"
             d="m 0,0 c 0,0 -5.166,-0.141 -8.867,-4.21 -3.7,-4.069 -3.35,-9.226 -3.35,-9.226 0,0 5.166,0.141 8.866,4.21 C 0.349,-5.156 0,0 0,0" /></g><g
           transform="translate(66.058,71.0247)"
           id="g24"><path
             id="path26"
             style="fill:#ffffff;fill-opacity:1;fill-rule:nonzero;stroke:none"
             d="m 0,0 c 0,0 -5.166,-0.141 -8.867,-4.21 -3.7,-4.069 -3.35,-9.226 -3.35,-9.226 0,0 5.166,0.141 8.866,4.21 C 0.349,-5.156 0,0 0,0" /></g><g
           transform="translate(33.942,62.5773)"
           id="g28"><path
             id="path30"
             style="fill:#ffffff;fill-opacity:1;fill-rule:nonzero;stroke:none"
             d="m 0,0 c 0,0 5.166,-0.141 8.867,-4.21 3.7,-4.069 3.35,-9.226 3.35,-9.226 0,0 -5.166,0.141 -8.866,4.21 C -0.349,-5.156 0,0 0,0" /></g><g
           transform="translate(35.5807,43.4966)"
           id="g32"><path
             id="path34"
             style="fill:#372e8a;fill-opacity:1;fill-rule:nonzero;stroke:none"
             d="m 0,0 c 0,0 5.166,-0.141 8.867,-4.21 3.7,-4.069 3.35,-9.226 3.35,-9.226 0,0 -5.166,0.141 -8.866,4.21 C -0.349,-5.156 0,0 0,0" /></g><g
           transform="translate(50.3536,75.3617)"
           id="g36"><path
             id="path38"
             style="fill:none;stroke:#ffffff;stroke-width:2.5940001;stroke-linecap:round;stroke-linejoin:miter;stroke-miterlimit:10;stroke-dasharray:none;stroke-opacity:1"
             d="M 0,0 V -57.465" /></g><g
           transform="translate(40.9052,74.9293)"
           id="g40"><path
             id="path42"
             style="fill:#ffffff;fill-opacity:1;fill-rule:nonzero;stroke:none"
             d="m 0,0 c 0,-3.962 3.212,-7.174 7.174,-7.174 3.962,0 7.173,3.212 7.173,7.174 0,3.962 -3.211,7.174 -7.173,7.174 C 3.212,7.174 0,3.962 0,0" /></g><g
           transform="translate(42.6465,76.6248)"
           id="g44"><path
             id="path46"
             style="fill:#372e8a;fill-opacity:1;fill-rule:nonzero;stroke:none"
             d="m 0,0 c 0,-2.187 1.773,-3.96 3.96,-3.96 2.188,0 3.961,1.773 3.961,3.96 0,2.187 -1.773,3.96 -3.961,3.96 C 1.773,3.96 0,2.187 0,0" /></g></g></g></g></svg>