<?xml version="1.0" encoding="UTF-8" standalone="no"?>
<svg
   xmlns:dc="http://purl.org/dc/elements/1.1/"
   xmlns:cc="http://creativecommons.org/ns#"
   xmlns:rdf="http://www.w3.org/1999/02/22-rdf-syntax-ns#"
   xmlns:svg="http://www.w3.org/2000/svg"
   xmlns="http://www.w3.org/2000/svg"
   viewBox="0 0 133.33333 133.33333"
   height="133.33333"
   width="133.33333"
   xml:space="preserve"
   id="svg2"
   version="1.1"><metadata
     id="metadata8"><rdf:RDF><cc:Work
         rdf:about=""><dc:format>image/svg+xml</dc:format><dc:type
           rdf:resource="http://purl.org/dc/dcmitype/StillImage" /></cc:Work></rdf:RDF></metadata><defs
     id="defs6"><clipPath
       id="clipPath18"
       clipPathUnits="userSpaceOnUse"><path
         id="path16"
         d="M 0,100 H 100 V 0 H 0 Z" /></clipPath></defs><g
     transform="matrix(1.3333333,0,0,-1.3333333,0,133.33333)"
     id="g10"><g
       id="g12"><g
         clip-path="url(#clipPath18)"
         id="g14"><g
           transform="translate(29.9634,41.9813)"
           id="g20"><path
             id="path22"
             style="fill:none;stroke:#372e8a;stroke-width:3;stroke-linecap:round;stroke-linejoin:miter;stroke-miterlimit:10;stroke-dasharray:none;stroke-opacity:1"
             d="m 0,0 c -0.681,2.701 0.956,5.442 3.656,6.123 3.376,0.852 6.803,-1.195 7.655,-4.57 1.064,-4.22 -1.494,-8.504 -5.714,-9.568 -5.274,-1.33 -10.629,1.867 -11.959,7.142 -1.663,6.593 2.333,13.286 8.927,14.949 8.241,2.079 16.608,-2.917 18.687,-11.159 2.078,8.242 10.445,13.238 18.686,11.159 6.594,-1.663 10.59,-8.356 8.927,-14.949 -1.33,-5.275 -6.685,-8.472 -11.959,-7.142 -4.22,1.064 -6.778,5.348 -5.714,9.568 0.852,3.375 4.279,5.422 7.655,4.57 2.7,-0.681 4.337,-3.422 3.656,-6.123" /></g><g
           transform="translate(51.215,44.8987)"
           id="g24"><path
             id="path26"
             style="fill:none;stroke:#372e8a;stroke-width:3;stroke-linecap:round;stroke-linejoin:miter;stroke-miterlimit:10;stroke-dasharray:none;stroke-opacity:1"
             d="M 0,0 V -23.187" /></g><g
           transform="translate(50.5508,71.1335)"
           id="g28"><path
             id="path30"
             style="fill:#ffffff;fill-opacity:1;fill-rule:nonzero;stroke:none"
             d="M 0,0 C 0,0.367 0.297,0.664 0.664,0.664 1.031,0.664 1.328,0.367 1.328,0 V -17.839 C 13.538,-4.781 0.701,8.065 0.701,8.065 H 0.627 c 0,0 -12.836,-12.846 -0.627,-25.904 z" /></g></g></g></g></svg>