<?xml version="1.0" encoding="UTF-8" standalone="no"?>
<svg
   xmlns:dc="http://purl.org/dc/elements/1.1/"
   xmlns:cc="http://creativecommons.org/ns#"
   xmlns:rdf="http://www.w3.org/1999/02/22-rdf-syntax-ns#"
   xmlns:svg="http://www.w3.org/2000/svg"
   xmlns="http://www.w3.org/2000/svg"
   viewBox="0 0 133.33333 133.33333"
   height="133.33333"
   width="133.33333"
   xml:space="preserve"
   id="svg2"
   version="1.1"><metadata
     id="metadata8"><rdf:RDF><cc:Work
         rdf:about=""><dc:format>image/svg+xml</dc:format><dc:type
           rdf:resource="http://purl.org/dc/dcmitype/StillImage" /></cc:Work></rdf:RDF></metadata><defs
     id="defs6"><clipPath
       id="clipPath24"
       clipPathUnits="userSpaceOnUse"><path
         id="path22"
         d="M 0,100 H 100 V 0 H 0 Z" /></clipPath></defs><g
     transform="matrix(1.3333333,0,0,-1.3333333,0,133.33333)"
     id="g10"><path
       id="path12"
       style="fill:#d8ccc8;fill-opacity:1;fill-rule:nonzero;stroke:none"
       d="M 0,0 H 100 V 100 H 0 Z" /><g
       transform="translate(35.6454,55.799)"
       id="g14"><path
         id="path16"
         style="fill:none;stroke:#ffffff;stroke-width:0.71799999;stroke-linecap:round;stroke-linejoin:round;stroke-miterlimit:10;stroke-dasharray:none;stroke-opacity:1"
         d="m 0,0 -3.768,3.938 2.531,2.03 -2.889,3.59 3.289,3.842 -2.093,3.529 4.426,0.358 0.658,4.785 3.887,-3.986 0.598,-0.918 1.077,1.277 4.306,3.986 -0.179,-5.323 h 5.323 L 14.221,13.46 18.9,10.589 14.58,7.239 19.199,4.01 13.218,-1.193" /></g><g
       id="g18"><g
         clip-path="url(#clipPath24)"
         id="g20"><g
           transform="translate(35.8618,49.5244)"
           id="g26"><path
             id="path28"
             style="fill:#ffffff;fill-opacity:1;fill-rule:nonzero;stroke:none"
             d="m 0,0 c 0.148,3.263 0.633,14.092 0.712,18.094 0.063,3.212 2.572,5.728 5.711,5.728 3.138,0 5.647,-2.516 5.711,-5.729 0.079,-3.992 0.564,-14.797 0.712,-18.046 z" /></g><g
           transform="translate(42.2846,74.2438)"
           id="g30"><path
             id="path32"
             style="fill:#372e8a;fill-opacity:1;fill-rule:nonzero;stroke:none"
             d="m 0,0 c -3.649,0 -6.535,-2.959 -6.608,-6.608 -0.094,-4.756 -0.754,-19.011 -0.754,-19.011 l 14.724,0.053 c 0,0 -0.66,14.216 -0.754,18.958 C 6.535,-2.959 3.649,0 0,0 m 0,-1.794 c 2.645,0 4.76,-2.13 4.814,-4.849 0.074,-3.732 0.488,-13.106 0.67,-17.136 l -10.968,-0.039 c 0.183,4.046 0.596,13.436 0.67,17.175 0.054,2.719 2.169,4.849 4.814,4.849" /></g><g
           transform="translate(69.1066,61.3638)"
           id="g34"><path
             id="path36"
             style="fill:#ffffff;fill-opacity:1;fill-rule:nonzero;stroke:none"
             d="m 0,0 c 0,0 -28.135,-18.361 -43.688,1.316 -9.233,11.68 -14.713,-10.527 -14.713,-10.527 0,0 13.39,5.596 20.813,-9.523 4.426,-9.376 24.201,-5.353 29.905,0.717 C -2.376,-12.369 0,0 0,0" /></g><g
           transform="translate(69.1066,61.3638)"
           id="g38"><path
             id="path40"
             style="fill:none;stroke:#372e8a;stroke-width:1.79400003;stroke-linecap:butt;stroke-linejoin:miter;stroke-miterlimit:10;stroke-dasharray:none;stroke-opacity:1"
             d="m 0,0 c 0,0 -28.135,-18.361 -43.688,1.316 -9.233,11.68 -14.713,-10.527 -14.713,-10.527 0,0 13.39,5.596 20.813,-9.523 4.426,-9.376 24.201,-5.353 29.905,0.717 C -2.376,-12.369 0,0 0,0 Z" /></g><g
           transform="translate(22.0691,60.048)"
           id="g42"><path
             id="path44"
             style="fill:#372e8a;fill-opacity:1;fill-rule:nonzero;stroke:none"
             d="m 0,0 c 0,-0.925 -0.75,-1.675 -1.675,-1.675 -0.925,0 -1.674,0.75 -1.674,1.675 0,0.925 0.749,1.675 1.674,1.675 C -0.75,1.675 0,0.925 0,0" /></g><g
           transform="translate(68.3016,60.347)"
           id="g46"><path
             id="path48"
             style="fill:#372e8a;fill-opacity:1;fill-rule:nonzero;stroke:none"
             d="M 0,0 C 0,0 0.657,25.481 20.814,10.168 15.236,10.407 7.297,11.005 0,0" /></g><g
           transform="translate(89.2947,59.7366)"
           id="g50"><path
             id="path52"
             style="fill:#372e8a;fill-opacity:1;fill-rule:nonzero;stroke:none"
             d="m 0,0 c -5.487,5.26 -11.399,13.698 -22.24,0.584 0,0 7.453,3.103 22.24,-0.584" /></g><g
           transform="translate(84.261,50.0224)"
           id="g54"><path
             id="path56"
             style="fill:#372e8a;fill-opacity:1;fill-rule:nonzero;stroke:none"
             d="M 0,0 C -2.012,5.892 -0.384,13.128 -17.132,10.911 -17.132,10.911 -7.334,7.42 0,0" /></g><g
           transform="translate(51.3756,37.8918)"
           id="g58"><path
             id="path60"
             style="fill:#ffffff;fill-opacity:1;fill-rule:nonzero;stroke:#372e8a;stroke-width:1.79400003;stroke-linecap:round;stroke-linejoin:miter;stroke-miterlimit:10;stroke-dasharray:none;stroke-opacity:1"
             d="M 0,0 14.354,-16.122" /></g><g
           transform="translate(38.718,37.5321)"
           id="g62"><path
             id="path64"
             style="fill:#ffffff;fill-opacity:1;fill-rule:nonzero;stroke:#372e8a;stroke-width:1.79400003;stroke-linecap:round;stroke-linejoin:miter;stroke-miterlimit:10;stroke-dasharray:none;stroke-opacity:1"
             d="M 0,0 -8.156,-14.925" /></g><g
           transform="translate(61.902,31.5788)"
           id="g66"><path
             id="path68"
             style="fill:#ffffff;fill-opacity:1;fill-rule:nonzero;stroke:#372e8a;stroke-width:1.79400003;stroke-linecap:round;stroke-linejoin:miter;stroke-miterlimit:10;stroke-dasharray:none;stroke-opacity:1"
             d="M 0,0 -1.675,-9.809" /></g><g
           transform="translate(56.3996,27.8706)"
           id="g70"><path
             id="path72"
             style="fill:#ffffff;fill-opacity:1;fill-rule:nonzero;stroke:#372e8a;stroke-width:1.79400003;stroke-linecap:round;stroke-linejoin:miter;stroke-miterlimit:10;stroke-dasharray:none;stroke-opacity:1"
             d="M 0,0 10.73,-1.196" /></g><g
           transform="translate(37.0214,29.306)"
           id="g74"><path
             id="path76"
             style="fill:#ffffff;fill-opacity:1;fill-rule:nonzero;stroke:#372e8a;stroke-width:1.79400003;stroke-linecap:round;stroke-linejoin:miter;stroke-miterlimit:10;stroke-dasharray:none;stroke-opacity:1"
             d="M 0,0 -8.134,-3.23" /></g><g
           transform="translate(30.562,32.2965)"
           id="g78"><path
             id="path80"
             style="fill:#ffffff;fill-opacity:1;fill-rule:nonzero;stroke:#372e8a;stroke-width:1.79400003;stroke-linecap:round;stroke-linejoin:miter;stroke-miterlimit:10;stroke-dasharray:none;stroke-opacity:1"
             d="M 0,0 5.263,-9.211" /></g></g></g></g></svg>