<?xml version="1.0" encoding="UTF-8" standalone="no"?>
<svg
   xmlns:dc="http://purl.org/dc/elements/1.1/"
   xmlns:cc="http://creativecommons.org/ns#"
   xmlns:rdf="http://www.w3.org/1999/02/22-rdf-syntax-ns#"
   xmlns:svg="http://www.w3.org/2000/svg"
   xmlns="http://www.w3.org/2000/svg"
   viewBox="0 0 133.33333 133.33333"
   height="133.33333"
   width="133.33333"
   xml:space="preserve"
   id="svg2"
   version="1.1"><metadata
     id="metadata8"><rdf:RDF><cc:Work
         rdf:about=""><dc:format>image/svg+xml</dc:format><dc:type
           rdf:resource="http://purl.org/dc/dcmitype/StillImage" /></cc:Work></rdf:RDF></metadata><defs
     id="defs6"><clipPath
       id="clipPath18"
       clipPathUnits="userSpaceOnUse"><path
         id="path16"
         d="M 0,100 H 100 V 0 H 0 Z" /></clipPath></defs><g
     transform="matrix(1.3333333,0,0,-1.3333333,0,133.33333)"
     id="g10"><g
       id="g12"><g
         clip-path="url(#clipPath18)"
         id="g14"><g
           transform="translate(76.1602,13.0944)"
           id="g20"><path
             id="path22"
             style="fill:#ffffff;fill-opacity:1;fill-rule:nonzero;stroke:none"
             d="m 0,0 c 0,0 -4.156,-4.327 -10.541,-4.327 -6.385,0 -10.541,4.327 -10.541,4.327 0,0 4.156,4.327 10.541,4.327 C -4.156,4.327 0,0 0,0" /></g><g
           transform="translate(45.3286,13.0944)"
           id="g24"><path
             id="path26"
             style="fill:#ffffff;fill-opacity:1;fill-rule:nonzero;stroke:none"
             d="m 0,0 c 0,0 -4.156,-4.327 -10.541,-4.327 -6.385,0 -10.541,4.327 -10.541,4.327 0,0 4.156,4.327 10.541,4.327 C -4.156,4.327 0,0 0,0" /></g><g
           transform="translate(45.7806,23.7656)"
           id="g28"><path
             id="path30"
             style="fill:#ffffff;fill-opacity:1;fill-rule:nonzero;stroke:none"
             d="m 0,0 c 0,0 -3.924,1.359 -5.773,5.373 -1.849,4.014 -0.333,7.88 -0.333,7.88 0,0 3.924,-1.359 5.773,-5.373 C 1.517,3.866 0,0 0,0" /></g><g
           transform="translate(53.6963,23.7656)"
           id="g32"><path
             id="path34"
             style="fill:#ffffff;fill-opacity:1;fill-rule:nonzero;stroke:none"
             d="m 0,0 c 0,0 3.924,1.359 5.773,5.373 1.849,4.014 0.333,7.88 0.333,7.88 0,0 -3.924,-1.359 -5.773,-5.373 C -1.517,3.866 0,0 0,0" /></g><g
           transform="translate(60.3874,78.4599)"
           id="g36"><path
             id="path38"
             style="fill:#ffffff;fill-opacity:1;fill-rule:nonzero;stroke:none"
             d="m 0,0 c 0,8.835 6.291,12.716 6.291,12.716 0,0 -13.118,1.64 -13.118,-12.716 V -19.794 H 0 Z" /></g><g
           transform="translate(39.5394,78.4599)"
           id="g40"><path
             id="path42"
             style="fill:#ffffff;fill-opacity:1;fill-rule:nonzero;stroke:none"
             d="m 0,0 c 0,8.835 -6.291,12.716 -6.291,12.716 0,0 13.118,1.64 13.118,-12.716 V -19.794 H 0 Z" /></g><g
           transform="translate(49.9634,91.2329)"
           id="g44"><path
             id="path46"
             style="fill:#372e8a;fill-opacity:1;fill-rule:nonzero;stroke:none"
             d="M 0,0 C 0,0 3.597,-3.746 3.597,-7.561 V -32.567 H 0 -3.597 V -7.561 C -3.597,-3.746 0,0 0,0" /></g><g
           transform="translate(59.3229,56.5977)"
           id="g48"><path
             id="path50"
             style="fill:none;stroke:#ffffff;stroke-width:2.50999999;stroke-linecap:round;stroke-linejoin:miter;stroke-miterlimit:10;stroke-dasharray:none;stroke-opacity:1"
             d="M 0,0 H -18.573" /></g><g
           transform="translate(50.0366,13.0944)"
           id="g52"><path
             id="path54"
             style="fill:none;stroke:#ffffff;stroke-width:2.50999999;stroke-linecap:round;stroke-linejoin:round;stroke-miterlimit:10;stroke-dasharray:none;stroke-opacity:1"
             d="M 0,0 V 43.503" /></g><g
           transform="translate(74.813,38.4589)"
           id="g56"><path
             id="path58"
             style="fill:none;stroke:#ffffff;stroke-width:2.50999999;stroke-linecap:round;stroke-linejoin:round;stroke-miterlimit:10;stroke-dasharray:none;stroke-opacity:1"
             d="M 0,0 -24.776,-25.364" /></g><g
           transform="translate(87.4725,41.2984)"
           id="g60"><path
             id="path62"
             style="fill:#ffffff;fill-opacity:1;fill-rule:nonzero;stroke:none"
             d="m 0,0 c -2.712,-2.712 -12.66,-2.84 -12.66,-2.84 0,0 0.128,9.948 2.84,12.66 2.712,2.712 7.108,2.712 9.82,0 C 2.712,7.108 2.712,2.712 0,0" /></g><g
           transform="translate(87.4725,41.2984)"
           id="g64"><path
             id="path66"
             style="fill:none;stroke:#372e8a;stroke-width:2.50999999;stroke-linecap:butt;stroke-linejoin:miter;stroke-miterlimit:10;stroke-dasharray:none;stroke-opacity:1"
             d="m 0,0 c -2.712,-2.712 -12.66,-2.84 -12.66,-2.84 0,0 0.128,9.948 2.84,12.66 2.712,2.712 7.108,2.712 9.82,0 C 2.712,7.108 2.712,2.712 0,0 Z" /></g><g
           transform="translate(71.9735,51.1184)"
           id="g68"><path
             id="path70"
             style="fill:#ffffff;fill-opacity:1;fill-rule:nonzero;stroke:none"
             d="m 0,0 c 2.712,-2.712 2.84,-12.66 2.84,-12.66 0,0 -9.948,0.128 -12.66,2.84 -2.712,2.712 -2.712,7.108 0,9.82 2.712,2.712 7.108,2.712 9.82,0" /></g><g
           transform="translate(71.9735,51.1184)"
           id="g72"><path
             id="path74"
             style="fill:none;stroke:#372e8a;stroke-width:2.50999999;stroke-linecap:butt;stroke-linejoin:miter;stroke-miterlimit:10;stroke-dasharray:none;stroke-opacity:1"
             d="m 0,0 c 2.712,-2.712 2.84,-12.66 2.84,-12.66 0,0 -9.948,0.128 -12.66,2.84 -2.712,2.712 -2.712,7.108 0,9.82 2.712,2.712 7.108,2.712 9.82,0 z" /></g><g
           transform="translate(87.4725,35.6194)"
           id="g76"><path
             id="path78"
             style="fill:#ffffff;fill-opacity:1;fill-rule:nonzero;stroke:none"
             d="m 0,0 c -2.712,2.712 -12.66,2.84 -12.66,2.84 0,0 0.128,-9.948 2.84,-12.66 2.712,-2.712 7.108,-2.712 9.82,0 2.712,2.712 2.712,7.108 0,9.82" /></g><g
           transform="translate(87.4725,35.6194)"
           id="g80"><path
             id="path82"
             style="fill:none;stroke:#372e8a;stroke-width:2.50999999;stroke-linecap:butt;stroke-linejoin:miter;stroke-miterlimit:10;stroke-dasharray:none;stroke-opacity:1"
             d="m 0,0 c -2.712,2.712 -12.66,2.84 -12.66,2.84 0,0 0.128,-9.948 2.84,-12.66 2.712,-2.712 7.108,-2.712 9.82,0 2.712,2.712 2.712,7.108 0,9.82 z" /></g><g
           transform="translate(25.187,38.4589)"
           id="g84"><path
             id="path86"
             style="fill:none;stroke:#ffffff;stroke-width:2.50999999;stroke-linecap:round;stroke-linejoin:round;stroke-miterlimit:10;stroke-dasharray:none;stroke-opacity:1"
             d="M 0,0 24.776,-25.364" /></g><g
           transform="translate(12.5275,41.2984)"
           id="g88"><path
             id="path90"
             style="fill:#ffffff;fill-opacity:1;fill-rule:nonzero;stroke:none"
             d="m 0,0 c 2.712,-2.712 12.66,-2.84 12.66,-2.84 0,0 -0.128,9.948 -2.84,12.66 C 7.108,12.532 2.712,12.532 0,9.82 -2.712,7.108 -2.712,2.712 0,0" /></g><g
           transform="translate(12.5275,41.2984)"
           id="g92"><path
             id="path94"
             style="fill:none;stroke:#372e8a;stroke-width:2.50999999;stroke-linecap:butt;stroke-linejoin:miter;stroke-miterlimit:10;stroke-dasharray:none;stroke-opacity:1"
             d="m 0,0 c 2.712,-2.712 12.66,-2.84 12.66,-2.84 0,0 -0.128,9.948 -2.84,12.66 C 7.108,12.532 2.712,12.532 0,9.82 -2.712,7.108 -2.712,2.712 0,0 Z" /></g><g
           transform="translate(28.0265,51.1184)"
           id="g96"><path
             id="path98"
             style="fill:#ffffff;fill-opacity:1;fill-rule:nonzero;stroke:none"
             d="m 0,0 c -2.712,-2.712 -2.84,-12.66 -2.84,-12.66 0,0 9.948,0.128 12.66,2.84 2.712,2.712 2.712,7.108 0,9.82 C 7.108,2.712 2.712,2.712 0,0" /></g><g
           transform="translate(28.0265,51.1184)"
           id="g100"><path
             id="path102"
             style="fill:none;stroke:#372e8a;stroke-width:2.50999999;stroke-linecap:butt;stroke-linejoin:miter;stroke-miterlimit:10;stroke-dasharray:none;stroke-opacity:1"
             d="m 0,0 c -2.712,-2.712 -2.84,-12.66 -2.84,-12.66 0,0 9.948,0.128 12.66,2.84 2.712,2.712 2.712,7.108 0,9.82 C 7.108,2.712 2.712,2.712 0,0 Z" /></g><g
           transform="translate(12.5275,35.6194)"
           id="g104"><path
             id="path106"
             style="fill:#ffffff;fill-opacity:1;fill-rule:nonzero;stroke:none"
             d="m 0,0 c 2.712,2.712 12.66,2.84 12.66,2.84 0,0 -0.128,-9.948 -2.84,-12.66 -2.712,-2.712 -7.108,-2.712 -9.82,0 -2.712,2.712 -2.712,7.108 0,9.82" /></g><g
           transform="translate(12.5275,35.6194)"
           id="g108"><path
             id="path110"
             style="fill:none;stroke:#372e8a;stroke-width:2.50999999;stroke-linecap:butt;stroke-linejoin:miter;stroke-miterlimit:10;stroke-dasharray:none;stroke-opacity:1"
             d="m 0,0 c 2.712,2.712 12.66,2.84 12.66,2.84 0,0 -0.128,-9.948 -2.84,-12.66 -2.712,-2.712 -7.108,-2.712 -9.82,0 -2.712,2.712 -2.712,7.108 0,9.82 z" /></g></g></g></g></svg>