<?xml version="1.0" encoding="UTF-8" standalone="no"?>
<svg
   xmlns:dc="http://purl.org/dc/elements/1.1/"
   xmlns:cc="http://creativecommons.org/ns#"
   xmlns:rdf="http://www.w3.org/1999/02/22-rdf-syntax-ns#"
   xmlns:svg="http://www.w3.org/2000/svg"
   xmlns="http://www.w3.org/2000/svg"
   viewBox="0 0 133.33333 133.33333"
   height="133.33333"
   width="133.33333"
   xml:space="preserve"
   id="svg2"
   version="1.1"><metadata
     id="metadata8"><rdf:RDF><cc:Work
         rdf:about=""><dc:format>image/svg+xml</dc:format><dc:type
           rdf:resource="http://purl.org/dc/dcmitype/StillImage" /></cc:Work></rdf:RDF></metadata><defs
     id="defs6"><clipPath
       id="clipPath18"
       clipPathUnits="userSpaceOnUse"><path
         id="path16"
         d="M 0,100 H 100 V 0 H 0 Z" /></clipPath><clipPath
       id="clipPath58"
       clipPathUnits="userSpaceOnUse"><path
         id="path56"
         d="m -20.9998,8.6208 h 42 V -8.62112 h -42 z" /></clipPath><clipPath
       id="clipPath76"
       clipPathUnits="userSpaceOnUse"><path
         id="path74"
         d="m -20.9998,8.6208 h 42 V -8.62112 h -42 z" /></clipPath></defs><g
     transform="matrix(1.3333333,0,0,-1.3333333,0,133.33333)"
     id="g10"><g
       id="g12"><g
         clip-path="url(#clipPath18)"
         id="g14"><g
           transform="translate(37.9466,73.6052)"
           id="g20"><path
             id="path22"
             style="fill:#372e8a;fill-opacity:1;fill-rule:nonzero;stroke:none"
             d="m 0,0 c 0,12.765 -9.219,17.503 -9.219,17.503 0,0 16.66,1.158 16.66,-17.503 V -30.022 H 0 Z" /></g><g
           transform="translate(59.8449,73.6052)"
           id="g24"><path
             id="path26"
             style="fill:#372e8a;fill-opacity:1;fill-rule:nonzero;stroke:none"
             d="m 0,0 c 0,12.765 9.219,17.503 9.219,17.503 0,0 -16.66,1.158 -16.66,-17.503 V -30.022 H 0 Z" /></g><g
           transform="translate(66.5188,71.9207)"
           id="g28"><path
             id="path30"
             style="fill:#ffffff;fill-opacity:1;fill-rule:nonzero;stroke:none"
             d="m 0,0 c 0,9.265 6.135,13.335 6.135,13.335 0,0 -12.793,1.72 -12.793,-13.335 V -28.338 H 0 Z" /></g><g
           transform="translate(31.2564,71.9207)"
           id="g32"><path
             id="path34"
             style="fill:#ffffff;fill-opacity:1;fill-rule:nonzero;stroke:none"
             d="m 0,0 c 0,9.265 -6.135,13.335 -6.135,13.335 0,0 12.793,1.72 12.793,-13.335 V -28.338 H 0 Z" /></g><g
           transform="translate(48.8958,85.3156)"
           id="g36"><path
             id="path38"
             style="fill:#ffffff;fill-opacity:1;fill-rule:nonzero;stroke:none"
             d="M 0,0 C 0,0 -3.508,-3.928 -3.508,-7.929 V -41.733 H 0 3.508 V -7.929 C 3.508,-3.928 0,0 0,0" /></g><path
           id="path40"
           style="fill:#ffffff;fill-opacity:1;fill-rule:nonzero;stroke:none"
           d="m 50.071,7.92 h -2.35 v 33.811 h 2.35 z" /><g
           transform="translate(32.056,41.7319)"
           id="g42"><path
             id="path44"
             style="fill:none;stroke:#ffffff;stroke-width:2.0309999;stroke-linecap:round;stroke-linejoin:miter;stroke-miterlimit:10;stroke-dasharray:none;stroke-opacity:1"
             d="M 0,0 H 33.68" /></g><g
           transform="translate(48.8958,12.0431)"
           id="g46"><path
             id="path48"
             style="fill:none;stroke:#ffffff;stroke-width:2.0309999;stroke-linecap:round;stroke-linejoin:miter;stroke-miterlimit:10;stroke-dasharray:none;stroke-opacity:1"
             d="m 0,0 c 0,7.37 5.856,10.669 10.182,10.669 3.461,0 6.266,-3.017 6.266,-6.738 0,-2.977 -2.244,-5.391 -5.013,-5.391 -2.214,0 -4.01,1.931 -4.01,4.313 0,1.905 1.437,3.449 3.208,3.449 1.418,0 2.567,-1.235 2.567,-2.759 0,-1.22 -0.919,-2.208 -2.053,-2.208" /></g><g
           transform="matrix(-0.3680055,-0.1440306,0.133943,-0.3957209,58.294716,29.379099)"
           id="g50"><g
             id="g52"><g
               clip-path="url(#clipPath58)"
               id="g54"><g
                 transform="translate(-20.9998,-2e-4)"
                 id="g60"><path
                   id="path62"
                   style="fill:#372e8a;fill-opacity:1;fill-rule:nonzero;stroke:none"
                   d="M 0,0 C 0,0 8.28,8.621 21,8.621 33.72,8.621 42,0 42,0 42,0 33.72,-8.621 21,-8.621 8.28,-8.621 0,0 0,0" /></g></g></g></g><g
           transform="translate(48.8958,12.0431)"
           id="g64"><path
             id="path66"
             style="fill:none;stroke:#ffffff;stroke-width:2.0309999;stroke-linecap:round;stroke-linejoin:miter;stroke-miterlimit:10;stroke-dasharray:none;stroke-opacity:1"
             d="m 0,0 c 0,7.37 -5.856,10.669 -10.182,10.669 -3.461,0 -6.266,-3.017 -6.266,-6.738 0,-2.977 2.244,-5.391 5.013,-5.391 2.214,0 4.01,1.931 4.01,4.313 0,1.905 -1.437,3.449 -3.208,3.449 -1.418,0 -2.567,-1.235 -2.567,-2.759 0,-1.22 0.919,-2.208 2.053,-2.208" /></g><g
           transform="matrix(0.3680055,-0.1440306,-0.133943,-0.3957209,39.496796,29.379101)"
           id="g68"><g
             id="g70"><g
               clip-path="url(#clipPath76)"
               id="g72"><g
                 transform="translate(-20.9998,-2e-4)"
                 id="g78"><path
                   id="path80"
                   style="fill:#372e8a;fill-opacity:1;fill-rule:nonzero;stroke:none"
                   d="M 0,0 C 0,0 8.28,8.621 21,8.621 33.72,8.621 42,0 42,0 42,0 33.72,-8.621 21,-8.621 8.28,-8.621 0,0 0,0" /></g></g></g></g></g></g></g></svg>