<?xml version="1.0" encoding="UTF-8" standalone="no"?>
<svg
   xmlns:dc="http://purl.org/dc/elements/1.1/"
   xmlns:cc="http://creativecommons.org/ns#"
   xmlns:rdf="http://www.w3.org/1999/02/22-rdf-syntax-ns#"
   xmlns:svg="http://www.w3.org/2000/svg"
   xmlns="http://www.w3.org/2000/svg"
   viewBox="0 0 133.33333 133.33333"
   height="133.33333"
   width="133.33333"
   xml:space="preserve"
   id="svg2"
   version="1.1"><metadata
     id="metadata8"><rdf:RDF><cc:Work
         rdf:about=""><dc:format>image/svg+xml</dc:format><dc:type
           rdf:resource="http://purl.org/dc/dcmitype/StillImage" /></cc:Work></rdf:RDF></metadata><defs
     id="defs6"><clipPath
       id="clipPath18"
       clipPathUnits="userSpaceOnUse"><path
         id="path16"
         d="M 0,100 H 100 V 0 H 0 Z" /></clipPath></defs><g
     transform="matrix(1.3333333,0,0,-1.3333333,0,133.33333)"
     id="g10"><g
       id="g12"><g
         clip-path="url(#clipPath18)"
         id="g14"><g
           transform="translate(56.9732,69.7368)"
           id="g20"><path
             id="path22"
             style="fill:#363088;fill-opacity:1;fill-rule:nonzero;stroke:none"
             d="m 0,0 c 0,-2.535 2.055,-4.59 4.59,-4.59 2.535,0 4.591,2.055 4.591,4.59 0,2.535 -2.056,4.59 -4.591,4.59 C 2.055,4.59 0,2.535 0,0" /></g><g
           transform="translate(64.1695,65.2665)"
           id="g24"><path
             id="path26"
             style="fill:#363088;fill-opacity:1;fill-rule:nonzero;stroke:none"
             d="m 0,0 c 0,-2.535 2.055,-4.59 4.59,-4.59 2.535,0 4.591,2.055 4.591,4.59 0,2.535 -2.056,4.59 -4.591,4.59 C 2.055,4.59 0,2.535 0,0" /></g><g
           transform="translate(64.9823,56.2988)"
           id="g28"><path
             id="path30"
             style="fill:#363088;fill-opacity:1;fill-rule:nonzero;stroke:none"
             d="m 0,0 c 0,-2.535 2.055,-4.59 4.59,-4.59 2.535,0 4.591,2.055 4.591,4.59 0,2.535 -2.056,4.59 -4.591,4.59 C 2.055,4.59 0,2.535 0,0" /></g><g
           transform="translate(58.7185,65.3729)"
           id="g32"><path
             id="path34"
             style="fill:#363088;fill-opacity:1;fill-rule:nonzero;stroke:none"
             d="m 0,0 c 0,-2.535 -2.055,-4.59 -4.59,-4.59 -2.535,0 -4.591,2.055 -4.591,4.59 0,2.535 2.056,4.59 4.591,4.59 C -2.055,4.59 0,2.535 0,0" /></g><g
           transform="translate(57.9056,56.4052)"
           id="g36"><path
             id="path38"
             style="fill:#363088;fill-opacity:1;fill-rule:nonzero;stroke:none"
             d="m 0,0 c 0,-2.535 -2.055,-4.59 -4.59,-4.59 -2.535,0 -4.591,2.055 -4.591,4.59 0,2.535 2.056,4.59 4.591,4.59 C -2.055,4.59 0,2.535 0,0" /></g><g
           transform="translate(69.0227,37.9377)"
           id="g40"><path
             id="path42"
             style="fill:#363088;fill-opacity:1;fill-rule:nonzero;stroke:none"
             d="m 0,0 v 23.908 c 0,4.119 -3.34,7.459 -7.459,7.459 -4.12,0 -7.459,-3.34 -7.459,-7.459 V 0 Z" /></g><g
           transform="translate(61.5635,69.3046)"
           id="g44"><path
             id="path46"
             style="fill:#ffffff;fill-opacity:1;fill-rule:nonzero;stroke:#363088;stroke-width:2;stroke-linecap:butt;stroke-linejoin:miter;stroke-miterlimit:10;stroke-dasharray:none;stroke-opacity:1"
             d="M 0,0 C -4.12,0 -7.459,-3.34 -7.459,-7.459 V -31.367 L 0,-30.994" /></g><g
           transform="translate(27.3722,31.6325)"
           id="g48"><path
             id="path50"
             style="fill:none;stroke:#363088;stroke-width:2;stroke-linecap:round;stroke-linejoin:miter;stroke-miterlimit:10;stroke-dasharray:none;stroke-opacity:1"
             d="M 0,0 C 0.989,1.088 2.672,1.169 3.761,0.181 5.121,-1.055 5.222,-3.16 3.987,-4.52 2.442,-6.221 -0.189,-6.347 -1.89,-4.803 -4.015,-2.872 -4.173,0.417 -2.242,2.543 0.171,5.2 4.282,5.397 6.939,2.984 10.261,-0.034 10.507,-5.172 7.49,-8.493 3.719,-12.645 -2.704,-12.954 -6.856,-9.182 c -5.19,4.714 -6.194,12.23 -0.074,26.384" /></g><g
           transform="translate(47.2198,72.8782)"
           id="g52"><path
             id="path54"
             style="fill:none;stroke:#363088;stroke-width:2;stroke-linecap:round;stroke-linejoin:miter;stroke-miterlimit:10;stroke-dasharray:none;stroke-opacity:1"
             d="m 0,0 c 0.392,1.556 -0.551,3.135 -2.106,3.527 -1.945,0.491 -3.919,-0.688 -4.409,-2.633 -0.613,-2.43 0.86,-4.898 3.291,-5.511 3.038,-0.766 6.122,1.075 6.889,4.114 0.958,3.798 -1.344,7.653 -5.142,8.611 -4.748,1.198 -9.567,-1.68 -10.765,-6.427 -1.197,4.747 -6.017,7.625 -10.764,6.427 -3.798,-0.958 -6.1,-4.813 -5.142,-8.611 0.766,-3.039 3.851,-4.88 6.889,-4.114 2.431,0.613 3.904,3.081 3.291,5.511 -0.491,1.945 -2.465,3.124 -4.409,2.633 C -23.933,3.135 -24.876,1.556 -24.483,0" /></g><g
           transform="translate(34.9781,74.5587)"
           id="g56"><path
             id="path58"
             style="fill:none;stroke:#363088;stroke-width:2;stroke-linecap:round;stroke-linejoin:miter;stroke-miterlimit:10;stroke-dasharray:none;stroke-opacity:1"
             d="M 0,0 V -13.357" /></g><g
           transform="translate(52.9567,23.8621)"
           id="g60"><path
             id="path62"
             style="fill:none;stroke:#363088;stroke-width:2;stroke-linecap:round;stroke-linejoin:miter;stroke-miterlimit:10;stroke-dasharray:none;stroke-opacity:1"
             d="M 0,0 -4.973,-4.973" /></g><g
           transform="translate(52.9567,23.8621)"
           id="g64"><path
             id="path66"
             style="fill:none;stroke:#363088;stroke-width:2;stroke-linecap:round;stroke-linejoin:miter;stroke-miterlimit:10;stroke-dasharray:none;stroke-opacity:1"
             d="M 0,0 4.973,-4.973" /></g><g
           transform="translate(52.9567,23.8621)"
           id="g68"><path
             id="path70"
             style="fill:none;stroke:#363088;stroke-width:2;stroke-linecap:round;stroke-linejoin:miter;stroke-miterlimit:10;stroke-dasharray:none;stroke-opacity:1"
             d="M 0,0 V -5.12" /></g><g
           transform="translate(65.1975,23.8621)"
           id="g72"><path
             id="path74"
             style="fill:none;stroke:#363088;stroke-width:2;stroke-linecap:round;stroke-linejoin:miter;stroke-miterlimit:10;stroke-dasharray:none;stroke-opacity:1"
             d="M 0,0 -4.973,-4.973" /></g><g
           transform="translate(65.1975,23.8621)"
           id="g76"><path
             id="path78"
             style="fill:none;stroke:#363088;stroke-width:2;stroke-linecap:round;stroke-linejoin:miter;stroke-miterlimit:10;stroke-dasharray:none;stroke-opacity:1"
             d="M 0,0 4.973,-4.973" /></g><g
           transform="translate(65.1975,23.8621)"
           id="g80"><path
             id="path82"
             style="fill:none;stroke:#363088;stroke-width:2;stroke-linecap:round;stroke-linejoin:miter;stroke-miterlimit:10;stroke-dasharray:none;stroke-opacity:1"
             d="M 0,0 V -5.12" /></g><g
           transform="translate(20.4421,48.8341)"
           id="g84"><path
             id="path86"
             style="fill:#ffffff;fill-opacity:1;fill-rule:nonzero;stroke:none"
             d="m 0,0 c 0,0 8.742,5.626 18.106,-10.647 1.18,-2.051 14.076,-24.507 34.937,-8.67 C 63.519,-11.365 63.776,3.556 63.117,11.29 61.33,8.855 46.465,-11.902 31.367,-1.721 26.33,1.675 23.7,12.898 15.046,12.305 6.597,11.725 1.767,4.526 0,0" /></g><g
           transform="translate(20.4421,48.8341)"
           id="g88"><path
             id="path90"
             style="fill:none;stroke:#363088;stroke-width:2;stroke-linecap:butt;stroke-linejoin:miter;stroke-miterlimit:10;stroke-dasharray:none;stroke-opacity:1"
             d="m 0,0 c 0,0 8.742,5.626 18.106,-10.647 1.18,-2.051 14.076,-24.507 34.937,-8.67 C 63.519,-11.365 63.776,3.556 63.117,11.29 61.33,8.855 46.465,-11.902 31.367,-1.721 26.33,1.675 23.7,12.898 15.046,12.305 6.597,11.725 1.767,4.526 0,0 Z" /></g><g
           transform="translate(76.6732,44.3712)"
           id="g92"><path
             id="path94"
             style="fill:none;stroke:#363088;stroke-width:2;stroke-linecap:round;stroke-linejoin:miter;stroke-miterlimit:10;stroke-dasharray:none;stroke-opacity:1"
             d="M 0,0 C -12.241,-18.744 -29.454,-14.297 -42.078,9.802" /></g><g
           transform="translate(36.5082,54.1733)"
           id="g96"><path
             id="path98"
             style="fill:none;stroke:#363088;stroke-width:2;stroke-linecap:round;stroke-linejoin:miter;stroke-miterlimit:10;stroke-dasharray:none;stroke-opacity:1"
             d="m 0,0 c 0,-1.056 -0.856,-1.913 -1.913,-1.913 -1.056,0 -1.912,0.857 -1.912,1.913 0,1.056 0.856,1.913 1.912,1.913 C -0.856,1.913 0,1.056 0,0 Z" /></g></g></g></g></svg>