<?xml version="1.0" encoding="UTF-8" standalone="no"?>
<svg
   xmlns:dc="http://purl.org/dc/elements/1.1/"
   xmlns:cc="http://creativecommons.org/ns#"
   xmlns:rdf="http://www.w3.org/1999/02/22-rdf-syntax-ns#"
   xmlns:svg="http://www.w3.org/2000/svg"
   xmlns="http://www.w3.org/2000/svg"
   viewBox="0 0 133.33333 133.33333"
   height="133.33333"
   width="133.33333"
   xml:space="preserve"
   id="svg2"
   version="1.1"><metadata
     id="metadata8"><rdf:RDF><cc:Work
         rdf:about=""><dc:format>image/svg+xml</dc:format><dc:type
           rdf:resource="http://purl.org/dc/dcmitype/StillImage" /></cc:Work></rdf:RDF></metadata><defs
     id="defs6"><clipPath
       id="clipPath18"
       clipPathUnits="userSpaceOnUse"><path
         id="path16"
         d="M 0,100 H 100 V 0 H 0 Z" /></clipPath></defs><g
     transform="matrix(1.3333333,0,0,-1.3333333,0,133.33333)"
     id="g10"><g
       id="g12"><g
         clip-path="url(#clipPath18)"
         id="g14"><g
           transform="translate(39.7053,38.4009)"
           id="g20"><path
             id="path22"
             style="fill:#ffffff;fill-opacity:1;fill-rule:nonzero;stroke:none"
             d="m 0,0 c -1.24,0 -2.426,-0.216 -3.537,-0.596 1.042,1.674 1.653,3.644 1.653,5.761 0,3.862 -2.008,7.25 -5.032,9.195 5.413,0.655 9.61,5.257 9.61,10.847 0,0.381 -0.02,0.757 -0.058,1.127 1.973,-1.938 4.675,-3.136 7.659,-3.136 2.985,0 5.688,1.2 7.661,3.139 -0.037,-0.37 -0.057,-0.745 -0.057,-1.125 0,-5.596 4.206,-10.203 9.629,-10.85 -3.037,-1.943 -5.055,-5.337 -5.055,-9.209 0,-2.109 0.608,-4.072 1.642,-5.743 C 23.01,-0.213 21.829,0 20.596,0 15.838,0 11.802,-3.044 10.298,-7.286 8.794,-3.044 4.758,0 0,0 m -23.754,5.165 c 0,-6.04 4.896,-10.935 10.935,-10.935 1.24,0 2.426,0.216 3.537,0.596 -1.041,-1.674 -1.653,-3.644 -1.653,-5.761 0,-6.039 4.896,-10.935 10.935,-10.935 4.758,0 8.794,3.044 10.298,7.286 1.504,-4.242 5.54,-7.286 10.298,-7.286 6.039,0 10.935,4.896 10.935,10.935 0,2.109 -0.608,4.072 -1.642,5.743 1.105,-0.376 2.286,-0.59 3.519,-0.59 6.039,0 10.935,4.896 10.935,10.935 0,5.596 -4.206,10.203 -9.629,10.85 3.037,1.943 5.055,5.337 5.055,9.209 0,6.039 -4.896,10.935 -10.935,10.935 -2.986,0 -5.689,-1.2 -7.662,-3.139 0.038,0.37 0.058,0.745 0.058,1.125 0,6.039 -4.896,10.935 -10.935,10.935 -6.039,0 -10.935,-4.896 -10.935,-10.935 0,-0.381 0.02,-0.757 0.058,-1.127 -1.973,1.937 -4.675,3.136 -7.659,3.136 -6.039,0 -10.935,-4.896 -10.935,-10.935 0,-3.863 2.008,-7.25 5.032,-9.196 -5.413,-0.655 -9.61,-5.257 -9.61,-10.846" /></g><g
           transform="translate(50.0923,28.9746)"
           id="g24"><path
             id="path26"
             style="fill:#ffffff;fill-opacity:1;fill-rule:nonzero;stroke:none"
             d="m 0,0 c -10.838,0 -19.655,8.816 -19.655,19.654 0,10.839 8.817,19.656 19.655,19.656 10.837,0 19.655,-8.817 19.655,-19.656 C 19.655,8.816 10.837,0 0,0" /></g><g
           transform="translate(50.0923,69.6685)"
           id="g28"><path
             id="path30"
             style="fill:#372e8a;fill-opacity:1;fill-rule:nonzero;stroke:none"
             d="m 0,0 c -11.601,0 -21.039,-9.438 -21.039,-21.039 0,-11.601 9.438,-21.04 21.039,-21.04 11.601,0 21.039,9.439 21.039,21.04 C 21.039,-9.438 11.601,0 0,0 m 0,-2.768 c 10.091,0 18.271,-8.181 18.271,-18.271 0,-10.091 -8.18,-18.271 -18.271,-18.271 -10.091,0 -18.271,8.18 -18.271,18.271 0,10.09 8.18,18.271 18.271,18.271" /></g><g
           transform="translate(67.0314,58.6502)"
           id="g32"><path
             id="path34"
             style="fill:#372e8a;fill-opacity:1;fill-rule:nonzero;stroke:none"
             d="m 0,0 c 1.454,-2.603 2.323,-5.575 2.436,-8.741 -4.077,-6.459 -11.271,-10.752 -19.473,-10.752 -8.076,0 -15.176,4.164 -19.284,10.458 0.067,3.246 0.928,6.296 2.402,8.962 4.072,-1.91 9.936,-3.868 16.882,-3.868 7.034,0 12.959,2.008 17.037,3.941" /></g></g></g></g></svg>