<?xml version="1.0" encoding="UTF-8" standalone="no"?>
<svg
   xmlns:dc="http://purl.org/dc/elements/1.1/"
   xmlns:cc="http://creativecommons.org/ns#"
   xmlns:rdf="http://www.w3.org/1999/02/22-rdf-syntax-ns#"
   xmlns:svg="http://www.w3.org/2000/svg"
   xmlns="http://www.w3.org/2000/svg"
   viewBox="0 0 133.33333 133.33333"
   height="133.33333"
   width="133.33333"
   xml:space="preserve"
   id="svg2"
   version="1.1"><metadata
     id="metadata8"><rdf:RDF><cc:Work
         rdf:about=""><dc:format>image/svg+xml</dc:format><dc:type
           rdf:resource="http://purl.org/dc/dcmitype/StillImage" /></cc:Work></rdf:RDF></metadata><defs
     id="defs6"><clipPath
       id="clipPath18"
       clipPathUnits="userSpaceOnUse"><path
         id="path16"
         d="M 0,100 H 100 V 0 H 0 Z" /></clipPath></defs><g
     transform="matrix(1.3333333,0,0,-1.3333333,0,133.33333)"
     id="g10"><g
       id="g12"><g
         clip-path="url(#clipPath18)"
         id="g14"><g
           transform="translate(82.4014,30.4744)"
           id="g20"><path
             id="path22"
             style="fill:none;stroke:#363088;stroke-width:2;stroke-linecap:round;stroke-linejoin:miter;stroke-miterlimit:10;stroke-dasharray:none;stroke-opacity:1"
             d="m 0,0 c -0.863,0.951 -2.334,1.021 -3.285,0.158 -1.188,-1.08 -1.276,-2.918 -0.197,-4.106 1.349,-1.485 3.647,-1.596 5.132,-0.247 1.857,1.687 1.995,4.559 0.309,6.416 -2.109,2.321 -5.699,2.493 -8.02,0.385 -2.901,-2.635 -3.116,-7.123 -0.481,-10.024 3.294,-3.626 8.904,-3.896 12.53,-0.602 4.533,4.118 5.41,10.682 0.065,23.044" /></g><g
           transform="translate(65.0666,66.4981)"
           id="g24"><path
             id="path26"
             style="fill:none;stroke:#363088;stroke-width:2;stroke-linecap:round;stroke-linejoin:miter;stroke-miterlimit:10;stroke-dasharray:none;stroke-opacity:1"
             d="M 0,0 C -0.343,1.359 0.481,2.738 1.84,3.081 3.538,3.509 5.262,2.48 5.69,0.781 6.226,-1.342 4.939,-3.497 2.816,-4.032 c -2.654,-0.67 -5.348,0.939 -6.017,3.593 -0.837,3.317 1.174,6.684 4.491,7.521 4.147,1.046 8.356,-1.468 9.402,-5.614 1.046,4.146 5.255,6.66 9.401,5.614 3.317,-0.837 5.328,-4.204 4.491,-7.521 -0.669,-2.654 -3.363,-4.263 -6.016,-3.593 -2.123,0.535 -3.41,2.69 -2.875,4.813 0.429,1.699 2.153,2.728 3.851,2.3 C 20.903,2.738 21.726,1.359 21.384,0" /></g><g
           transform="translate(75.7584,67.9659)"
           id="g28"><path
             id="path30"
             style="fill:none;stroke:#363088;stroke-width:2;stroke-linecap:round;stroke-linejoin:miter;stroke-miterlimit:10;stroke-dasharray:none;stroke-opacity:1"
             d="M 0,0 V -11.666" /></g><g
           transform="translate(60.056,23.6878)"
           id="g32"><path
             id="path34"
             style="fill:none;stroke:#363088;stroke-width:2;stroke-linecap:round;stroke-linejoin:miter;stroke-miterlimit:10;stroke-dasharray:none;stroke-opacity:1"
             d="M 0,0 4.343,-4.343" /></g><g
           transform="translate(60.056,23.6878)"
           id="g36"><path
             id="path38"
             style="fill:none;stroke:#363088;stroke-width:2;stroke-linecap:round;stroke-linejoin:miter;stroke-miterlimit:10;stroke-dasharray:none;stroke-opacity:1"
             d="M 0,0 -4.343,-4.343" /></g><g
           transform="translate(60.056,23.6878)"
           id="g40"><path
             id="path42"
             style="fill:none;stroke:#363088;stroke-width:2;stroke-linecap:round;stroke-linejoin:miter;stroke-miterlimit:10;stroke-dasharray:none;stroke-opacity:1"
             d="M 0,0 V -4.472" /></g><g
           transform="translate(49.365,23.6878)"
           id="g44"><path
             id="path46"
             style="fill:none;stroke:#363088;stroke-width:2;stroke-linecap:round;stroke-linejoin:miter;stroke-miterlimit:10;stroke-dasharray:none;stroke-opacity:1"
             d="M 0,0 4.343,-4.343" /></g><g
           transform="translate(49.365,23.6878)"
           id="g48"><path
             id="path50"
             style="fill:none;stroke:#363088;stroke-width:2;stroke-linecap:round;stroke-linejoin:miter;stroke-miterlimit:10;stroke-dasharray:none;stroke-opacity:1"
             d="M 0,0 -4.343,-4.343" /></g><g
           transform="translate(49.365,23.6878)"
           id="g52"><path
             id="path54"
             style="fill:none;stroke:#363088;stroke-width:2;stroke-linecap:round;stroke-linejoin:miter;stroke-miterlimit:10;stroke-dasharray:none;stroke-opacity:1"
             d="M 0,0 V -4.472" /></g><g
           transform="translate(88.4541,45.4981)"
           id="g56"><path
             id="path58"
             style="fill:#ffffff;fill-opacity:1;fill-rule:nonzero;stroke:none"
             d="m 0,0 c 0,0 -7.635,4.914 -15.814,-9.299 -1.031,-1.791 -12.293,-21.404 -30.514,-7.573 -9.149,6.946 -9.374,19.977 -8.798,26.733 1.561,-2.127 14.544,-20.256 27.73,-11.364 4.4,2.966 6.697,12.768 14.255,12.25 C -5.762,10.24 -1.543,3.953 0,0" /></g><g
           transform="translate(88.4541,45.4981)"
           id="g60"><path
             id="path62"
             style="fill:none;stroke:#363088;stroke-width:2;stroke-linecap:round;stroke-linejoin:miter;stroke-miterlimit:10;stroke-dasharray:none;stroke-opacity:1"
             d="m 0,0 c 0,0 -7.635,4.914 -15.814,-9.299 -1.031,-1.791 -12.293,-21.404 -30.514,-7.573 -9.149,6.946 -9.374,19.977 -8.798,26.733 1.561,-2.127 14.544,-20.256 27.73,-11.364 4.4,2.966 6.697,12.768 14.255,12.25 C -5.762,10.24 -1.543,3.953 0,0 Z" /></g><g
           transform="translate(39.3422,41.6003)"
           id="g64"><path
             id="path66"
             style="fill:none;stroke:#363088;stroke-width:2;stroke-linecap:round;stroke-linejoin:miter;stroke-miterlimit:10;stroke-dasharray:none;stroke-opacity:1"
             d="M 0,0 C 10.691,-16.371 25.725,-12.487 36.75,8.561" /></g><g
           transform="translate(74.422,50.1614)"
           id="g68"><path
             id="path70"
             style="fill:#363088;fill-opacity:1;fill-rule:nonzero;stroke:none"
             d="m 0,0 c 0,-0.923 0.748,-1.67 1.67,-1.67 0.923,0 1.671,0.747 1.671,1.67 0,0.923 -0.748,1.67 -1.671,1.67 C 0.748,1.67 0,0.923 0,0" /></g><g
           transform="translate(74.422,50.1614)"
           id="g72"><path
             id="path74"
             style="fill:none;stroke:#363088;stroke-width:2;stroke-linecap:round;stroke-linejoin:miter;stroke-miterlimit:10;stroke-dasharray:none;stroke-opacity:1"
             d="m 0,0 c 0,-0.923 0.748,-1.67 1.67,-1.67 0.923,0 1.671,0.747 1.671,1.67 0,0.923 -0.748,1.67 -1.671,1.67 C 0.748,1.67 0,0.923 0,0 Z" /></g><g
           transform="translate(7.8655,76.4066)"
           id="g76"><path
             id="path78"
             style="fill:none;stroke:#363088;stroke-width:2;stroke-linecap:round;stroke-linejoin:miter;stroke-miterlimit:10;stroke-dasharray:none;stroke-opacity:1"
             d="M 0,0 C 1.99,7.627 27.625,8.046 25.463,-21.716" /></g><g
           transform="translate(7.8655,70.162)"
           id="g80"><path
             id="path82"
             style="fill:none;stroke:#363088;stroke-width:2;stroke-linecap:round;stroke-linejoin:miter;stroke-miterlimit:10;stroke-dasharray:none;stroke-opacity:1"
             d="M 0,0 C 2.076,6.202 22.233,8.365 25.463,-15.471" /></g><g
           transform="translate(7.8655,63.9174)"
           id="g84"><path
             id="path86"
             style="fill:none;stroke:#363088;stroke-width:2;stroke-linecap:round;stroke-linejoin:miter;stroke-miterlimit:10;stroke-dasharray:none;stroke-opacity:1"
             d="M 0,0 C 4.009,5.97 19.226,8.596 25.463,-9.227" /></g><g
           transform="translate(7.8655,57.0047)"
           id="g88"><path
             id="path90"
             style="fill:none;stroke:#363088;stroke-width:2;stroke-linecap:round;stroke-linejoin:miter;stroke-miterlimit:10;stroke-dasharray:none;stroke-opacity:1"
             d="M 0,0 C 4.677,10.197 20.452,5.036 25.463,-2.314" /></g></g></g></g></svg>