<?xml version="1.0" encoding="UTF-8" standalone="no"?>
<svg
   xmlns:dc="http://purl.org/dc/elements/1.1/"
   xmlns:cc="http://creativecommons.org/ns#"
   xmlns:rdf="http://www.w3.org/1999/02/22-rdf-syntax-ns#"
   xmlns:svg="http://www.w3.org/2000/svg"
   xmlns="http://www.w3.org/2000/svg"
   viewBox="0 0 133.33333 133.33333"
   height="133.33333"
   width="133.33333"
   xml:space="preserve"
   id="svg2"
   version="1.1"><metadata
     id="metadata8"><rdf:RDF><cc:Work
         rdf:about=""><dc:format>image/svg+xml</dc:format><dc:type
           rdf:resource="http://purl.org/dc/dcmitype/StillImage" /></cc:Work></rdf:RDF></metadata><defs
     id="defs6"><clipPath
       id="clipPath18"
       clipPathUnits="userSpaceOnUse"><path
         id="path16"
         d="M 0,100 H 100 V 0 H 0 Z" /></clipPath></defs><g
     transform="matrix(1.3333333,0,0,-1.3333333,0,133.33333)"
     id="g10"><g
       id="g12"><g
         clip-path="url(#clipPath18)"
         id="g14"><g
           transform="translate(53.9376,34.5829)"
           id="g20"><path
             id="path22"
             style="fill:none;stroke:#372e8a;stroke-width:2.07200003;stroke-linecap:round;stroke-linejoin:miter;stroke-miterlimit:10;stroke-dasharray:none;stroke-opacity:1"
             d="m 0,0 c 0,0 1.008,7.018 9.965,7.018 3.661,0 6.629,-2.969 6.629,-6.63 0,-2.929 -2.374,-5.303 -5.303,-5.303 -2.343,0 -4.243,1.899 -4.243,4.242 0,1.875 1.52,3.395 3.394,3.395 1.5,0 2.716,-1.216 2.716,-2.716 0,-1.2 -0.973,-2.172 -2.173,-2.172" /></g><g
           transform="translate(52.0149,28.3415)"
           id="g24"><path
             id="path26"
             style="fill:none;stroke:#372e8a;stroke-width:2.07200003;stroke-linecap:round;stroke-linejoin:miter;stroke-miterlimit:10;stroke-dasharray:none;stroke-opacity:1"
             d="m 0,0 c 0,11.322 -4.63,13.673 -9.207,13.673 -3.661,0 -6.629,-2.968 -6.629,-6.629 0,-2.929 2.374,-5.304 5.303,-5.304 2.344,0 4.243,1.9 4.243,4.243 0,1.875 -1.519,3.394 -3.394,3.394 -1.5,0 -2.715,-1.215 -2.715,-2.715 0,-1.2 0.972,-2.172 2.172,-2.172" /></g><g
           transform="translate(66.3714,76.2212)"
           id="g28"><path
             id="path30"
             style="fill:#ffffff;fill-opacity:1;fill-rule:nonzero;stroke:none"
             d="m 0,0 c 0,9.116 6.491,13.121 6.491,13.121 0,0 -13.535,1.692 -13.535,-13.121 V -20.424 H 0 Z" /></g><g
           transform="translate(44.8602,76.2212)"
           id="g32"><path
             id="path34"
             style="fill:#ffffff;fill-opacity:1;fill-rule:nonzero;stroke:none"
             d="m 0,0 c 0,9.116 -6.491,13.121 -6.491,13.121 0,0 13.535,1.692 13.535,-13.121 V -20.424 H 0 Z" /></g><g
           transform="translate(55.6158,89.4005)"
           id="g36"><path
             id="path38"
             style="fill:#372e8a;fill-opacity:1;fill-rule:nonzero;stroke:none"
             d="M 0,0 C 0,0 3.712,-3.865 3.712,-7.801 V -33.603 H 0 -3.712 V -7.801 C -3.712,-3.865 0,0 0,0" /></g><g
           transform="translate(55.6158,53.9329)"
           id="g40"><path
             id="path42"
             style="fill:none;stroke:#ffffff;stroke-width:2.48600006;stroke-linecap:round;stroke-linejoin:miter;stroke-miterlimit:10;stroke-dasharray:none;stroke-opacity:1"
             d="M 0,0 C 0,-25.428 -5.941,-40.492 -28.479,-43.333" /></g><g
           transform="translate(65.3528,54.0618)"
           id="g44"><path
             id="path46"
             style="fill:none;stroke:#ffffff;stroke-width:2.07200003;stroke-linecap:round;stroke-linejoin:miter;stroke-miterlimit:10;stroke-dasharray:none;stroke-opacity:1"
             d="M 0,0 H -19.474" /></g></g></g></g></svg>